<?xml version="1.0" encoding="utf-8"?>
<!-- Generator: Adobe Illustrator 20.1.0, SVG Export Plug-In . SVG Version: 6.00 Build 0)  -->
<svg version="1.1" id="Ebene_1" xmlns="http://www.w3.org/2000/svg" xmlns:xlink="http://www.w3.org/1999/xlink" x="0px" y="0px"
	 viewBox="0 0 595.3 841.9" style="enable-background:new 0 0 595.3 841.9;" xml:space="preserve">
<style type="text/css">
	.st0{fill:#FFFFFF;}
	.st1{fill:#0079C0;}
	.st2{fill:#4593CF;}
	.st3{fill:#7EADDC;}
	.st4{fill:#A2C1E5;}
	.st5{fill:none;stroke:#FFFFFF;stroke-width:2.8346;stroke-miterlimit:10;}
	.st6{fill:#1189CA;}
	.st7{fill:none;stroke:#FFFFFF;stroke-width:2.8347;stroke-miterlimit:10;}
	.st8{fill:#007CC2;}
	.st9{fill-rule:evenodd;clip-rule:evenodd;fill:#FFFFFF;}
	.st10{fill:none;stroke:#FFFFFF;stroke-width:2.8416;stroke-miterlimit:10;}
	.st11{fill-rule:evenodd;clip-rule:evenodd;fill:#7BABDB;}
	.st12{fill-rule:evenodd;clip-rule:evenodd;fill:#B9CFEB;}
	.st13{fill-rule:evenodd;clip-rule:evenodd;fill:#0079C0;}
	.st14{fill:none;stroke:#231F20;stroke-width:0.5669;stroke-miterlimit:22.9256;}
	.st15{fill:#004575;}
</style>
<g id="Ebene_1_1_">
</g>
<g>
	<path class="st0" d="M493.2,392.3c0,60.1-48.7,108.8-108.8,108.8c-60.1,0-108.8-48.7-108.8-108.8c0-60.1,48.7-108.8,108.8-108.8
		C444.5,283.5,493.2,332.2,493.2,392.3"/>
	<path class="st1" d="M384.4,287.2c-57.9,0-105,47.1-105,105c0,57.9,47.1,105,105,105c57.9,0,105-47.1,105-105
		C489.4,334.4,442.3,287.2,384.4,287.2 M384.4,504.8c-62.1,0-112.6-50.5-112.6-112.6c0-62.1,50.5-112.6,112.6-112.6
		c62.1,0,112.6,50.5,112.6,112.6C496.9,454.3,446.4,504.8,384.4,504.8z"/>
	<path class="st1" d="M211.6,281c-61.4,0-111.3,49.9-111.3,111.3c0,61.4,49.9,111.3,111.3,111.3c61.4,0,111.3-49.9,111.3-111.3
		C323,330.9,273,281,211.6,281"/>
	<path class="st2" d="M309.2,317.1c-2.7,2.7-5.3,5.6-7.7,8.7C303.9,322.8,306.5,319.9,309.2,317.1L309.2,317.1z M301.1,458.4
		C301.1,458.4,301.1,458.4,301.1,458.4c2.7,3.5,5.6,6.7,8.8,9.8l0,0c-0.6-0.6-1.2-1.2-1.7-1.7C305.7,463.8,303.4,461.1,301.1,458.4z
		"/>
	<path class="st2" d="M297.4,322.7c-0.3,0.3-0.5,0.7-0.8,1c0,0,0,0,0,0C296.9,323.4,297.2,323.1,297.4,322.7 M295.1,450
		c0.5,0.8,1.1,1.6,1.6,2.4c0,0,0,0,0,0C296.2,451.6,295.6,450.8,295.1,450z M278.1,359.1c-3.3,10.6-5,21.7-5,33.2
		c0,11.4,1.7,22.5,5,33.1c3,9.5,7.2,18.6,12.6,27c-3.4-5.3-6.3-10.8-8.8-16.7l4.6-1.9c-5.5-13-8.4-27-8.4-41.5
		c0-19.2,5-37.6,14.5-53.7l-4.3-2.5c0.4-0.7,0.9-1.5,1.3-2.2c1.3-2,2.6-4,3.9-6c0,0,0,0,0,0C286.7,337.5,281.5,348,278.1,359.1z
		 M299.8,456.6C299.8,456.7,299.8,456.7,299.8,456.6c0.4,0.6,0.9,1.2,1.3,1.7c0,0,0,0,0,0C300.7,457.8,300.2,457.2,299.8,456.6z"/>
	<path class="st2" d="M385.9,280.9c10.7,0.1,21.3,1.8,31.6,5.1c1.9,0.6,3.8,1.2,5.7,1.9C411.2,283.4,398.7,281.1,385.9,280.9
		 M383.9,285.9c-10.9,0.1-21.8,1.8-32.4,5.3c-0.1,0-0.1,0-0.2,0.1c2.4-0.8,4.8-1.5,7.2-2.1C366.9,287.1,375.4,286,383.9,285.9z
		 M349.8,286.5c-20.5,6.7-38.4,19-51.8,35.6c0,0,0,0,0,0c2.4-2.9,5-5.8,7.7-8.5l3.5,3.5c11.2-11.2,24.8-19.8,39.9-25.1l-1.7-4.7
		C348.2,287,349,286.7,349.8,286.5z M301.5,325.8c-0.1,0.1-0.2,0.3-0.3,0.4l0,0C301.2,326,301.4,325.9,301.5,325.8z"/>
	<path class="st2" d="M298,322.1c-0.2,0.2-0.4,0.4-0.5,0.7C297.6,322.5,297.8,322.3,298,322.1C298,322.1,298,322.1,298,322.1
		 M301.1,326.1c-0.5,0.6-0.9,1.1-1.3,1.7c0,0,0,0,0,0C300.2,327.3,300.7,326.7,301.1,326.1L301.1,326.1z M296.7,332.2
		c-1.4,2.1-2.8,4.2-4.1,6.4l0,0c0.4-0.7,0.8-1.4,1.2-2.1C294.8,335,295.7,333.6,296.7,332.2C296.7,332.2,296.7,332.2,296.7,332.2z"
		/>
	<path class="st3" d="M305.7,313.6c-2.7,2.7-5.3,5.6-7.7,8.5c-0.2,0.2-0.4,0.4-0.5,0.7c-0.3,0.3-0.5,0.7-0.8,1
		c1.1,1.3,2.1,2.7,3.2,4.1c0.4-0.6,0.9-1.1,1.3-1.7c0.1-0.1,0.2-0.3,0.3-0.4c2.4-3,5-5.9,7.7-8.7L305.7,313.6z M293.5,327.9
		c-1.4,1.9-2.7,3.9-3.9,6c-0.4,0.7-0.9,1.5-1.3,2.2l4.3,2.5c1.3-2.2,2.7-4.3,4.1-6.4C295.7,330.7,294.6,329.3,293.5,327.9z"/>
	<path class="st2" d="M384.5,280.9c-11.6,0-23.3,1.8-34.6,5.5c0,0,0,0,0,0c2.4-0.8,4.9-1.5,7.4-2.1c9.1-2.3,18.2-3.4,27.4-3.4
		c0.5,0,0.9,0,1.4,0C385.4,280.9,384.9,280.9,384.5,280.9 M384.6,285.9c-0.2,0-0.5,0-0.7,0c0.2,0,0.4,0,0.6,0c4,0,8.1,0.2,12.1,0.7
		l0,0C392.6,286.2,388.6,285.9,384.6,285.9z M414.5,290.3c5.7,1.7,11.3,3.9,16.7,6.6c1.2,0.6,2.3,1.2,3.4,1.8
		c-4.6-2.5-9.4-4.6-14.3-6.4C418.5,291.5,416.5,290.9,414.5,290.3z M351.2,291.3c-0.7,0.2-1.4,0.5-2.1,0.7l0,0
		C349.8,291.8,350.5,291.5,351.2,291.3z M438.9,301L438.9,301c4,2.5,7.9,5.1,11.6,8C446.8,306.1,443,303.4,438.9,301z M453.3,304.8
		c7,5.5,13.3,11.9,18.9,19.1c3.7,4.8,7,9.8,9.8,15C474.9,325.6,465.1,314.1,453.3,304.8z M477.7,341.4c2.9,5.3,5.3,10.8,7.3,16.6
		l0.1,0C483.1,352.3,480.6,346.7,477.7,341.4z"/>
	<path class="st3" d="M384.6,280.9c-9.1,0-18.3,1.1-27.4,3.4c-2.5,0.6-5,1.3-7.4,2.1c-0.8,0.3-1.6,0.5-2.4,0.8l1.7,4.7
		c0.7-0.2,1.4-0.5,2.1-0.7c0.1,0,0.1,0,0.2-0.1c10.6-3.5,21.5-5.2,32.4-5.3c0.2,0,0.5,0,0.7,0c4,0,8,0.2,12,0.7l0.5-4.9
		c0.8,0.1,1.7,0.2,2.5,0.3c6.1,0.8,12.1,2.2,17.9,4c-10.3-3.2-20.9-4.9-31.6-5.1C385.5,280.9,385,280.9,384.6,280.9 M420.4,292.2
		c4.9,1.8,9.7,3.9,14.3,6.4c1.4,0.8,2.8,1.6,4.2,2.4l0,0C433.1,297.5,426.9,294.5,420.4,292.2z"/>
	<path class="st2" d="M396.6,286.6L396.6,286.6c0.8,0.1,1.6,0.2,2.4,0.3c5.3,0.7,10.5,1.9,15.6,3.4
		C408.6,288.6,402.6,287.3,396.6,286.6 M423.2,287.9c4.6,1.7,9.1,3.7,13.5,6.1c5.9,3.1,11.5,6.8,16.6,10.8
		C444.2,297.6,434.1,292,423.2,287.9z M450.5,309c6.5,5.2,12.5,11.2,17.8,18c3.6,4.6,6.7,9.4,9.4,14.4
		C470.9,328.8,461.7,317.8,450.5,309z M482.1,338.9c3,5.5,5.6,11.4,7.6,17.5L485,358c2.8,8.1,4.5,16.6,5.3,25.2l5-0.5
		c0.1,0.9,0.1,1.7,0.2,2.6c0.2,3.6,0.3,7.1,0.2,10.6C496.3,375.9,491.6,356.3,482.1,338.9z"/>
	<path class="st3" d="M396.6,286.6L396.6,286.6c6.1,0.7,12.1,1.9,18,3.7c2,0.6,3.9,1.2,5.8,1.9C412.6,289.4,404.7,287.6,396.6,286.6
		 M436.7,294c1.6,0.9,3.2,1.8,4.8,2.7l-2.6,4.3c4,2.4,7.9,5.1,11.6,8c11.2,8.8,20.4,19.8,27.2,32.4c2.9,5.3,5.4,10.9,7.3,16.6
		l4.7-1.6c-2.1-6.1-4.6-11.9-7.6-17.5c-2.8-5.2-6.1-10.2-9.8-15c-5.6-7.2-11.9-13.6-18.9-19.1C448.1,300.8,442.6,297.1,436.7,294z"
		/>
	<path class="st4" d="M397.1,281.7l-0.5,4.9c8.1,0.9,16.1,2.8,23.8,5.6c6.5,2.3,12.7,5.3,18.6,8.8l2.6-4.3c-1.6-0.9-3.2-1.8-4.8-2.7
		c-1.1-0.6-2.1-1.1-3.2-1.6c-5.2-2.6-10.5-4.7-16-6.4c-5.8-1.8-11.8-3.1-17.9-4C398.7,281.9,397.9,281.8,397.1,281.7"/>
	<path class="st2" d="M286.5,433.8L286.5,433.8c2.3,5.6,5.2,11,8.6,16.2C291.8,444.9,289,439.5,286.5,433.8 M290.7,452.4
		c0.9,1.4,1.9,2.8,2.8,4.2c0,0,0,0,0,0C292.5,455.2,291.6,453.8,290.7,452.4z"/>
	<path class="st3" d="M286.5,433.8l-4.6,1.9c2.5,5.9,5.4,11.4,8.8,16.7c0.9,1.4,1.9,2.8,2.8,4.2c1.1-1.4,2.1-2.8,3.2-4.2
		c-0.5-0.8-1.1-1.6-1.6-2.4C291.8,444.8,288.9,439.4,286.5,433.8"/>
	<path class="st2" d="M298,462.4C298,462.5,298,462.5,298,462.4c11.7,14.5,26.9,25.8,44.7,33c13.5,5.4,27.6,8.2,41.7,8.2
		c8,0,16.1-0.9,24-2.6c-5.1,1.1-10.3,1.9-15.5,2.3l-0.4-5c-2.7,0.2-5.4,0.3-8.1,0.3c-13.5,0-27-2.6-39.8-7.8
		c-13.1-5.3-24.8-13-34.6-22.6l-3.5,3.5c-0.6-0.6-1.2-1.2-1.8-1.8C302.3,467.5,300.1,465,298,462.4"/>
	<path class="st2" d="M296.6,460.8C296.6,460.8,296.6,460.8,296.6,460.8c0.4,0.6,0.9,1.2,1.3,1.7c0,0,0,0,0,0
		C297.5,461.9,297.1,461.3,296.6,460.8"/>
	<path class="st3" d="M301.1,458.4c-1,1.4-2.1,2.7-3.1,4c2.1,2.6,4.3,5.1,6.7,7.5c0.6,0.6,1.2,1.2,1.8,1.8l3.5-3.5
		C306.8,465.1,303.9,461.8,301.1,458.4"/>
	<path class="st3" d="M299.8,456.7c-1,1.4-2.1,2.8-3.2,4.1c0.4,0.6,0.9,1.1,1.3,1.7c1.1-1.3,2.1-2.7,3.1-4
		C300.7,457.8,300.2,457.3,299.8,456.7"/>
	<path class="st2" d="M426.8,489.7c-0.7,0.3-1.5,0.6-2.2,0.9c-5.7,2.3-11.5,4.1-17.4,5.4C414,494.6,420.6,492.5,426.8,489.7
		L426.8,489.7z"/>
	<path class="st2" d="M490.3,383.1L490.3,383.1c0,0.8,0.1,1.6,0.1,2.4c0.2,3.3,0.3,6.7,0.2,10C490.7,391.4,490.6,387.2,490.3,383.1
		 M495.6,395.8c-0.1,3.4-0.4,6.8-0.8,10.2l-5-0.6c-2.5,20.6-11.1,40-24.8,56c-10.6,12.4-23.7,22-38.2,28.3l2,4.5
		c-0.8,0.3-1.6,0.7-2.4,1c-5.9,2.4-12,4.3-18.1,5.7c23.5-5.1,44.5-17.7,60.5-36.2C485.5,445.3,494.8,421.2,495.6,395.8z
		 M407.2,496.1c-4.8,1-9.7,1.8-14.7,2.2l0,0C397.4,497.9,402.3,497.2,407.2,496.1z"/>
	<path class="st3" d="M426.8,489.7c-6.3,2.7-12.9,4.9-19.6,6.3c-4.9,1.1-9.8,1.8-14.7,2.2l0.4,5c5.3-0.4,10.5-1.2,15.5-2.3
		c6.1-1.4,12.2-3.3,18.1-5.7c0.8-0.3,1.6-0.7,2.4-1L426.8,489.7z"/>
	<path class="st3" d="M278.4,400.6c-0.5-6.8-0.4-13.7,0.4-20.6c0.6-5,1.5-9.8,2.7-14.6l-4.8-1.3c-1.3,5.1-2.3,10.3-2.9,15.4
		c-0.7,6.2-0.9,12.6-0.5,19c0.1,0.9,0.1,1.7,0.2,2.6L278.4,400.6z"/>
	<path class="st2" d="M113.5,427.1L113.5,427.1c1.3,3.8,2.9,7.4,4.6,11.1C116.4,434.6,114.9,430.9,113.5,427.1 M113.4,439.9
		c10.8,22.3,28.6,40.1,51.3,50.9c14.9,7.1,30.8,10.6,46.8,10.6c4.5,0,9-0.3,13.5-0.8c-4.4,0.5-8.8,0.8-13.3,0.8
		c-1.6,0-3.2,0-4.8-0.1l0.2-5c-13.8-0.6-27.5-4-40.3-10.1c-17-8.1-31.1-20.3-41.4-35.4l-4.1,2.8c-0.5-0.7-0.9-1.4-1.4-2.1
		C117.6,447.8,115.4,443.9,113.4,439.9z M247.4,490c-0.7,0.3-1.5,0.5-2.2,0.8c-7.5,2.6-15.2,4.2-22.9,5
		C230.9,495,239.4,493,247.4,490L247.4,490z"/>
	<path class="st2" d="M153.9,305.6c-1.8,1.2-3.6,2.5-5.3,3.8C150.3,308.1,152.1,306.8,153.9,305.6L153.9,305.6z M134.9,314.6
		c-8.9,8.7-16.1,18.9-21.5,30.1c4.6-9.5,10.6-18.3,17.8-26.1C132.3,317.2,133.6,315.9,134.9,314.6z M118.2,346.2
		c-4.6,9.4-7.9,19.6-9.5,30.2c0.2-1.5,0.5-3,0.8-4.6C111.4,362.8,114.3,354.2,118.2,346.2z M103.9,374.8c-3.6,22.4-0.3,45,9.5,65.1
		c-1.7-3.6-3.3-7.3-4.6-11.1l4.7-1.7c-5.2-14.6-7.1-30.3-5.4-45.9l-5-0.5c0.1-0.8,0.2-1.7,0.3-2.5
		C103.6,377.1,103.7,375.9,103.9,374.8z M118.2,438.1c2.2,4.4,4.6,8.7,7.4,12.7l0,0c-0.4-0.7-0.9-1.3-1.3-2
		C122,445.4,120,441.8,118.2,438.1z"/>
	<path class="st3" d="M113.5,427.1l-4.7,1.7c1.4,3.8,2.9,7.5,4.6,11.1c1.9,4,4.1,7.9,6.6,11.7c0.5,0.7,0.9,1.4,1.4,2.1l4.1-2.8
		c-2.7-4-5.2-8.3-7.4-12.7C116.4,434.5,114.8,430.9,113.5,427.1"/>
	<path class="st2" d="M206.8,283.2c-15.7,0.7-30.9,4.7-44.8,11.8c8.2-4.2,16.9-7.3,26.1-9.3C194.4,284.3,200.6,283.5,206.8,283.2
		 M211.8,288.1c-1.9,0-3.8,0.1-5.8,0.2c1.8-0.1,3.6-0.1,5.3-0.1c4.1,0,8.1,0.2,12.2,0.7l0-0.1C219.8,288.3,215.8,288.1,211.8,288.1z
		 M164.9,299.2c-3.8,1.9-7.5,4-11,6.4l0,0C157.5,303.2,161.1,301.1,164.9,299.2z M148.6,309.4c-3.6,2.7-7,5.7-10.2,8.8
		c-1.3,1.3-2.5,2.6-3.7,3.9c3.8-4.1,7.9-8,12.3-11.5C147.6,310.2,148.1,309.8,148.6,309.4z M123.3,337c-1.9,3-3.6,6-5.1,9.2
		C119.8,343,121.5,340,123.3,337L123.3,337z M113.4,344.7c-4.5,9.4-7.7,19.5-9.5,30.1c0.2-1.3,0.5-2.6,0.7-3.9
		C106.5,361.7,109.4,352.9,113.4,344.7z M108.8,376.4c-0.3,1.6-0.5,3.2-0.6,4.8l0,0c0.1-0.8,0.2-1.6,0.3-2.4
		C108.5,378,108.6,377.2,108.8,376.4z"/>
	<path class="st3" d="M153.9,305.6c-5.5,3.7-10.7,7.9-15.5,12.6c3.2-3.1,6.6-6.1,10.2-8.8C150.3,308.1,152.1,306.8,153.9,305.6
		L153.9,305.6z M131.1,318.6c-7.2,7.8-13.2,16.6-17.8,26.1c-4,8.2-6.9,17-8.7,26.1c-0.3,1.3-0.5,2.6-0.7,3.9
		c-0.2,1.2-0.4,2.3-0.5,3.5c-0.1,0.8-0.2,1.7-0.3,2.5l5,0.5c0.2-1.6,0.4-3.2,0.6-4.8c1.6-10.6,4.9-20.8,9.5-30.2
		c1.5-3.1,3.2-6.2,5.1-9.2l-4.2-2.6c0.4-0.7,0.9-1.4,1.4-2.1C123.7,327.4,127.2,322.8,131.1,318.6z"/>
	<path class="st2" d="M211.9,283.1c-1.7,0-3.4,0-5,0.1c1.5-0.1,3-0.1,4.6-0.1c4.3,0,8.6,0.2,12.9,0.8l-0.6,4.9
		c8.4,1,16.6,3,24.5,5.9l1.7-4.7c0.8,0.3,1.6,0.6,2.3,0.9c3.2,1.3,6.4,2.7,9.5,4.3C246.2,287.2,229.2,283.1,211.9,283.1
		 M206.1,288.3c-14.4,0.7-28.4,4.5-41.2,10.9c7.7-3.8,15.8-6.7,24.4-8.6C194.9,289.3,200.5,288.6,206.1,288.3z M162.1,295
		c-10,5.1-19.2,11.7-27.2,19.6c3.1-3.1,6.4-6,9.9-8.7C150.3,301.7,156,298.1,162.1,295z M134.7,322.1c-4.2,4.6-8,9.6-11.3,14.9l0,0
		c0.4-0.7,0.8-1.3,1.3-2C127.7,330.4,131.1,326.1,134.7,322.1z"/>
	<path class="st3" d="M144.8,306c-3.5,2.7-6.8,5.6-9.9,8.7c-1.3,1.3-2.5,2.6-3.8,3.9c3.9-4.3,8.2-8.2,12.8-11.9
		C144.2,306.4,144.5,306.2,144.8,306"/>
	<path class="st3" d="M211.4,283.1c-1.5,0-3.1,0-4.6,0.1c-6.2,0.3-12.4,1.1-18.6,2.5c-9.2,2-17.9,5.2-26.1,9.3
		c-6,3.1-11.8,6.7-17.2,11c2-1.6,4.1-3.1,6.3-4.5l2.8,4.1c3.5-2.3,7.2-4.5,11-6.4c12.8-6.5,26.8-10.2,41.2-10.9
		c1.9-0.1,3.8-0.2,5.8-0.2c4,0,7.9,0.2,11.8,0.7l0.6-4.9C220,283.4,215.7,283.1,211.4,283.1 M138.4,318.2
		c-5.8,5.7-10.8,12-15.1,18.8l0,0c3.3-5.3,7.1-10.3,11.3-14.9C135.9,320.8,137.2,319.5,138.4,318.2z"/>
	<path class="st4" d="M151.1,301.4c-2.2,1.4-4.3,3-6.3,4.5c-0.3,0.2-0.6,0.5-0.9,0.7c-4.6,3.7-8.9,7.6-12.8,11.9
		c-3.9,4.2-7.4,8.8-10.7,13.7c-0.5,0.7-0.9,1.4-1.4,2.1l4.2,2.6c4.3-6.8,9.3-13.1,15.1-18.8c4.8-4.7,9.9-8.9,15.5-12.6L151.1,301.4z
		"/>
	<path class="st2" d="M259.3,299.7c2.9,1.5,5.7,3.1,8.4,4.9l0,0C265,302.8,262.2,301.2,259.3,299.7"/>
	<path class="st2" d="M315.7,395.7c0,0.8-0.1,1.6-0.1,2.4c-0.3,5.9-1.1,11.6-2.4,17.2C314.7,408.9,315.5,402.3,315.7,395.7
		L315.7,395.7z M317.9,417.1c-1.1,4.9-2.6,9.7-4.5,14.4l-4.7-1.8c-3.1,8-7.1,15.6-12.1,22.6c1,1.5,2,2.9,3.1,4.3
		C308.5,444.8,314.6,431.4,317.9,417.1z"/>
	<path class="st3" d="M296.7,452.4C296.7,452.4,296.7,452.4,296.7,452.4c1,1.5,2,2.9,3.1,4.3c0,0,0,0,0,0
		C298.7,455.2,297.7,453.8,296.7,452.4"/>
	<path class="st2" d="M293.5,456.6c-3.5,4.4-7.3,8.5-11.5,12.4c-10.2,9.4-22,16.5-34.6,21.1l1.7,4.6c-0.8,0.3-1.6,0.6-2.4,0.8
		c-7.1,2.4-14.4,4.1-21.7,5c22.4-2.7,43.4-12.3,60.4-27.9c4-3.7,7.8-7.7,11.2-11.9C295.5,459.4,294.5,458,293.5,456.6 M222.3,495.9
		c-3.5,0.3-7,0.5-10.5,0.5c-1.5,0-3.1,0-4.6-0.1l0,0c1.5,0.1,2.9,0.1,4.4,0.1C215.2,496.4,218.7,496.2,222.3,495.9z"/>
	<path class="st3" d="M293.5,456.6C293.5,456.6,293.5,456.6,293.5,456.6c1,1.4,2,2.8,3.1,4.2c0,0,0,0,0,0
		C295.6,459.4,294.5,458,293.5,456.6"/>
	<path class="st4" d="M296.7,452.4c-1,1.4-2.1,2.8-3.2,4.2c1,1.4,2,2.8,3.1,4.2c1.1-1.3,2.1-2.7,3.2-4.1
		C298.7,455.3,297.7,453.8,296.7,452.4"/>
	<path class="st3" d="M247.4,490.1c-8.1,2.9-16.5,4.9-25.1,5.8c-3.6,0.4-7.1,0.6-10.7,0.6c-1.5,0-2.9,0-4.4-0.1l-0.2,5
		c1.6,0.1,3.2,0.1,4.8,0.1c4.5,0,8.9-0.3,13.3-0.8c7.3-0.9,14.6-2.6,21.7-5c0.8-0.3,1.6-0.6,2.4-0.8L247.4,490.1z"/>
	<path class="st2" d="M248.2,294.7L248.2,294.7c0.7,0.3,1.5,0.6,2.2,0.9c3,1.2,6,2.6,8.9,4C255.6,297.8,251.9,296.2,248.2,294.7
		 M261.7,295.3c3,1.5,5.9,3.2,8.7,5l-2.7,4.2c9.9,6.3,18.6,14.2,25.8,23.4c1-1.4,2-2.8,3.1-4.2C287.2,312,275.3,302.3,261.7,295.3z
		 M299.8,327.9c-1.1,1.4-2.1,2.8-3.1,4.3c3.9,5.6,7.3,11.5,10.1,17.9c6.5,14.6,9.5,30.2,8.9,45.7l5,0.1c0,0.8-0.1,1.7-0.1,2.5
		c-0.4,6.4-1.3,12.6-2.7,18.7c5.4-23,3.2-47.1-6.5-69.1C308.2,340.8,304.3,334.1,299.8,327.9z"/>
	<path class="st3" d="M296.6,323.7c-1.1,1.4-2.1,2.8-3.1,4.2c0,0,0,0,0,0C294.5,326.5,295.6,325.1,296.6,323.7
		C296.6,323.7,296.6,323.7,296.6,323.7"/>
	<path class="st3" d="M299.8,327.9c-1.1,1.4-2.1,2.8-3.1,4.3c0,0,0,0,0,0C297.7,330.7,298.7,329.3,299.8,327.9
		C299.8,327.9,299.8,327.9,299.8,327.9"/>
	<path class="st4" d="M296.6,323.7c-1.1,1.4-2.1,2.8-3.1,4.2c1.1,1.4,2.1,2.8,3.1,4.2c1-1.5,2-2.9,3.1-4.3
		C298.8,326.5,297.7,325.1,296.6,323.7"/>
	<path class="st2" d="M313.2,415.3c-1.1,4.8-2.6,9.7-4.4,14.4l0,0C310.6,425.1,312.1,420.3,313.2,415.3"/>
	<path class="st3" d="M249.9,290l-1.7,4.7c3.8,1.4,7.5,3.1,11.1,4.9c2.9,1.5,5.7,3.1,8.5,4.8l2.7-4.2c-2.8-1.8-5.7-3.5-8.7-5
		c-3.1-1.6-6.2-3-9.5-4.3C251.5,290.6,250.7,290.3,249.9,290"/>
	<path class="st3" d="M315.8,395.7c-0.2,6.6-1.1,13.1-2.6,19.6c-1.1,4.9-2.6,9.7-4.4,14.4l4.7,1.8c1.8-4.7,3.3-9.6,4.5-14.4
		c1.4-6.1,2.3-12.4,2.7-18.7c0-0.8,0.1-1.7,0.1-2.5L315.8,395.7z"/>
	<path class="st0" d="M332.1,442.8c0,4.2,3.4,7.5,7.5,7.5c4.2,0,7.5-3.4,7.5-7.5c0-4.2-3.4-7.5-7.5-7.5
		C335.5,435.3,332.1,438.6,332.1,442.8 M349,442.8c0,5.2-4.2,9.4-9.4,9.4c-5.2,0-9.4-4.2-9.4-9.4c0-5.2,4.2-9.4,9.4-9.4
		C344.8,433.4,349,437.6,349,442.8z M332.1,358.2c0,4.2,3.4,7.5,7.5,7.5c4.2,0,7.5-3.4,7.5-7.5c0-4.2-3.4-7.5-7.5-7.5
		C335.5,350.6,332.1,354,332.1,358.2z M349,358.2c0,5.2-4.2,9.4-9.4,9.4c-5.2,0-9.4-4.2-9.4-9.4c0-5.2,4.2-9.4,9.4-9.4
		C344.8,348.7,349,353,349,358.2z M327.8,442.4c0,6.5,5.3,11.8,11.8,11.8c6.5,0,11.8-5.3,11.8-11.8v-84.3c0-6.5-5.3-11.8-11.8-11.8
		c-6.5,0-11.8,5.3-11.8,11.8V442.4z M353.3,358.1v84.3c0,7.6-6.1,13.7-13.7,13.7c-7.6,0-13.7-6.1-13.7-13.7v-84.3
		c0-7.6,6.1-13.7,13.7-13.7C347.2,344.4,353.3,350.5,353.3,358.1z"/>
	<path class="st5" d="M342.8,457c-2.9,0-5.5-0.9-7.6-2.7c-2.1-1.8-3.2-3.9-3.2-6.4V336.3c0-2.5,1.1-4.6,3.2-6.4
		c2.1-1.8,4.7-2.7,7.6-2.7h38.7c0.1,0,1.9,0.1,5.2,0.3c3.3,0.2,7.4,0.9,12.3,2c4.9,1.2,10.1,3.1,15.7,5.7
		c5.6,2.6,10.8,6.3,15.6,11.1c4.8,4.8,8.8,10.9,11.9,18.4c1.6,3.8,2.8,8,3.6,12.7l0,0c0.1,0.3,0.1,0.7,0.2,1c0,0.1,0,0.3,0,0.5
		c0.2,2.8-0.7,5.6-2.3,7.9c-1.6,2.3-3.9,4-6.7,4.6c-0.4,0.1-0.9,0.2-1.4,0.2c-2.7,0.2-5.4-0.6-7.5-2.2c-1.7-1.3-3.1-3.1-3.8-5.3
		c-0.8-6.4-2.5-12-5.2-16.9c-3.8-6.9-9.2-12.1-16.2-15.8c-2.5-1.2-5-2.2-7.5-3c-2.5-0.7-4.8-1.3-6.9-1.7c-2.1-0.4-3.8-0.6-5.1-0.7
		c-1.3-0.1-2-0.2-2-0.2h-27.4v92.7h27.4c0.1,0,0.9-0.1,2.3-0.2c1.4-0.1,3.1-0.4,5.2-0.8c2.1-0.4,4.4-1.1,7-1.9
		c2.6-0.8,5.2-1.9,7.8-3.2c6.8-3.7,12-9,15.6-15.8c3.6-6.8,5.4-15,5.4-24.5c0-1.4,0-2.8-0.1-4.1c0.7,1,1.6,1.8,2.5,2.5
		c2.4,1.8,5.5,2.6,8.5,2.4c0.5,0,1.1-0.1,1.6-0.2c3.1-0.7,5.8-2.6,7.6-5.2c0.7-1,1.3-2.1,1.7-3.2c0.2,2.5,0.3,5.1,0.3,7.8
		c0,10.9-1.6,20-4.8,27.4c-3.2,7.4-7.1,13.5-11.9,18.4c-4.8,4.8-10,8.5-15.6,11.1c-5.6,2.6-10.8,4.5-15.7,5.7c-4.9,1.2-9,1.9-12.3,2
		c-3.3,0.2-5,0.3-5.2,0.3H342.8z"/>
	<path class="st6" d="M342.8,457c-2.9,0-5.5-0.9-7.6-2.7c-2.1-1.8-3.2-3.9-3.2-6.4V336.3c0-2.5,1.1-4.6,3.2-6.4
		c2.1-1.8,4.7-2.7,7.6-2.7h38.7c0.1,0,1.9,0.1,5.2,0.3c3.3,0.2,7.4,0.9,12.3,2c4.9,1.2,10.1,3.1,15.7,5.7
		c5.6,2.6,10.8,6.3,15.6,11.1c4.8,4.8,8.8,10.9,11.9,18.4c1.6,3.8,2.8,8,3.6,12.7l0,0c0.1,0.3,0.1,0.7,0.2,1c0,0.1,0,0.3,0,0.5
		c0.2,2.8-0.7,5.6-2.3,7.9c-1.6,2.3-3.9,4-6.7,4.6c-0.4,0.1-0.9,0.2-1.4,0.2c-2.7,0.2-5.4-0.6-7.5-2.2c-1.7-1.3-3.1-3.1-3.8-5.3
		c-0.8-6.4-2.5-12-5.2-16.9c-3.8-6.9-9.2-12.1-16.2-15.8c-2.5-1.2-5-2.2-7.5-3c-2.5-0.7-4.8-1.3-6.9-1.7c-2.1-0.4-3.8-0.6-5.1-0.7
		c-1.3-0.1-2-0.2-2-0.2h-27.4v92.7h27.4c0.1,0,0.9-0.1,2.3-0.2c1.4-0.1,3.1-0.4,5.2-0.8c2.1-0.4,4.4-1.1,7-1.9
		c2.6-0.8,5.2-1.9,7.8-3.2c6.8-3.7,12-9,15.6-15.8c3.6-6.8,5.4-15,5.4-24.5c0-1.4,0-2.8-0.1-4.1c0.7,1,1.6,1.8,2.5,2.5
		c2.4,1.8,5.5,2.6,8.5,2.4c0.5,0,1.1-0.1,1.6-0.2c3.1-0.7,5.8-2.6,7.6-5.2c0.7-1,1.3-2.1,1.7-3.2c0.2,2.5,0.3,5.1,0.3,7.8
		c0,10.9-1.6,20-4.8,27.4c-3.2,7.4-7.1,13.5-11.9,18.4c-4.8,4.8-10,8.5-15.6,11.1c-5.6,2.6-10.8,4.5-15.7,5.7c-4.9,1.2-9,1.9-12.3,2
		c-3.3,0.2-5,0.3-5.2,0.3H342.8z"/>
	<path class="st7" d="M354,438.4h-12.8c-2.5,0-4.8,1-6.5,2.7l0,0c-3.6,3.6-3.6,9.4,0,13c1.8,1.8,4.1,2.7,6.5,2.7
		C351.9,456.8,354,447.6,354,438.4z M335.4,450.1c-0.3-0.8-0.5-1.6-0.5-2.5c0-3.4,2.7-6.1,6.1-6.1c2.6,0,4.8,1.6,5.7,3.8
		c1,2.2,0.5,4.9-1.3,6.8c-1.2,1.2-2.8,1.8-4.3,1.8c-1.6,0-3.1-0.6-4.3-1.8C336.1,451.5,335.6,450.8,335.4,450.1z"/>
	<path class="st8" d="M354,438.4h-12.8c-2.5,0-4.8,1-6.5,2.7l0,0c-3.6,3.6-3.6,9.4,0,13c1.8,1.8,4.1,2.7,6.5,2.7
		C351.9,456.8,354,447.6,354,438.4 M335.4,450.1c-0.3-0.8-0.5-1.6-0.5-2.5c0-3.4,2.7-6.1,6.1-6.1c2.6,0,4.8,1.6,5.7,3.8
		c1,2.2,0.5,4.9-1.3,6.8c-1.2,1.2-2.8,1.8-4.3,1.8c-1.6,0-3.1-0.6-4.3-1.8C336.1,451.5,335.6,450.8,335.4,450.1z"/>
	<path class="st7" d="M354,345.4h-12.8c-2.5,0-4.8-1-6.5-2.7l0,0c-3.6-3.6-3.6-9.4,0-13c1.8-1.8,4.1-2.7,6.5-2.7
		C351.9,327.1,354,336.3,354,345.4z M335.4,333.8c-0.3,0.8-0.5,1.6-0.5,2.5c0,3.4,2.7,6.1,6.1,6.1c2.6,0,4.8-1.6,5.7-3.8
		c1-2.2,0.5-4.9-1.3-6.8c-1.2-1.2-2.8-1.8-4.3-1.8c-1.6,0-3.1,0.6-4.3,1.8C336.1,332.4,335.6,333,335.4,333.8z"/>
	<path class="st8" d="M354,345.4h-12.8c-2.5,0-4.8-1-6.5-2.7l0,0c-3.6-3.6-3.6-9.4,0-13c1.8-1.8,4.1-2.7,6.5-2.7
		C351.9,327.1,354,336.3,354,345.4 M335.4,333.8c-0.3,0.8-0.5,1.6-0.5,2.5c0,3.4,2.7,6.1,6.1,6.1c2.6,0,4.8-1.6,5.7-3.8
		c1-2.2,0.5-4.9-1.3-6.8c-1.2-1.2-2.8-1.8-4.3-1.8c-1.6,0-3.1,0.6-4.3,1.8C336.1,332.4,335.6,333,335.4,333.8z"/>
	<path class="st9" d="M340.9,442.4c3,0,5.5,2.4,5.5,5.3c0,3-2.4,5.3-5.5,5.3c-3,0-5.5-2.4-5.5-5.3
		C335.4,444.8,337.9,442.4,340.9,442.4"/>
	<path class="st9" d="M340.9,330.9c3,0,5.5,2.4,5.5,5.3c0,3-2.4,5.3-5.5,5.3c-3,0-5.5-2.4-5.5-5.3
		C335.4,333.3,337.9,330.9,340.9,330.9"/>
	<path class="st10" d="M434.1,385.8c0.8,0.1,1.7,0.1,2.5-0.1c3.3-0.9,5.2-4.2,4.3-7.5c-0.7-2.5-2.8-4.2-5.2-4.5
		c-2.4-0.4-4.9,0.7-6.2,3c-0.8,1.5-1,3.1-0.6,4.6c0.4,1.5,1.4,2.9,2.9,3.7C432.5,385.5,433.3,385.7,434.1,385.8z"/>
	<path class="st0" d="M434.1,385.8c0.8,0.1,1.7,0.1,2.5-0.1c3.3-0.9,5.2-4.2,4.3-7.5c-0.7-2.5-2.8-4.2-5.2-4.5
		c-2.4-0.4-4.9,0.7-6.2,3c-0.8,1.5-1,3.1-0.6,4.6c0.4,1.5,1.4,2.9,2.9,3.7C432.5,385.5,433.3,385.7,434.1,385.8"/>
	<path class="st11" d="M253.7,332.6c4.7,0,8.5,3.8,8.5,8.6c0,4.7-3.8,8.6-8.5,8.6s-8.5-3.8-8.5-8.6
		C245.2,336.5,249,332.6,253.7,332.6 M253.7,434.4c4.7,0,8.5,3.8,8.5,8.6c0,4.7-3.8,8.6-8.5,8.6s-8.5-3.8-8.5-8.6
		C245.2,438.2,249,434.4,253.7,434.4z M267.1,341.1v101.6c0,7.4-6,13.4-13.4,13.4c-7.4,0-13.4-6-13.4-13.4V341.1
		c0-7.4,6-13.4,13.4-13.4C261.1,327.7,267.1,333.7,267.1,341.1z"/>
	<path class="st11" d="M267.1,391.6c0,3.6-1.4,6.9-3.9,9.5c-2.5,2.5-5.9,3.9-9.5,3.9l-84.1,0c-3.6,0-6.9-1.4-9.5-3.9
		c-2.5-2.5-3.9-5.9-3.9-9.5c0-3.6,1.4-6.9,3.9-9.5c2.5-2.5,5.9-3.9,9.5-3.9h84.1c3.6,0,6.9,1.4,9.5,3.9
		C265.7,384.7,267.1,388,267.1,391.6"/>
	<path class="st11" d="M169.7,332.6c4.7,0,8.5,3.8,8.5,8.6c0,4.7-3.8,8.6-8.5,8.6s-8.5-3.8-8.5-8.6
		C161.2,336.5,165,332.6,169.7,332.6 M169.7,434.4c4.7,0,8.5,3.8,8.5,8.6c0,4.7-3.8,8.6-8.5,8.6s-8.5-3.8-8.5-8.6
		C161.2,438.2,165,434.4,169.7,434.4z M183,341.1v101.6c0,7.4-6,13.4-13.4,13.4c-7.4,0-13.4-6-13.4-13.4V341.1
		c0-7.4,6-13.4,13.4-13.4C177,327.7,183,333.7,183,341.1z"/>
	<path class="st12" d="M183,378.2V405h-13.4c-3.6,0-6.9-1.4-9.5-3.9c-2.3-2.3-3.6-5.3-3.9-8.5v-2c0.2-3.2,1.6-6.2,3.9-8.5
		c2.5-2.5,5.9-3.9,9.5-3.9H183z"/>
	<path class="st0" d="M169.6,333c-4.3,0-7.8,3.5-7.8,7.8c0,4.3,3.5,7.9,7.8,7.9c4.3,0,7.8-3.5,7.8-7.9
		C177.5,336.6,174,333,169.6,333 M169.6,350c-5,0-9.1-4.1-9.1-9.1c0-5,4.1-9.1,9.1-9.1c5,0,9.1,4.1,9.1,9.1
		C178.7,345.9,174.6,350,169.6,350z M169.6,434.9c-4.3,0-7.8,3.5-7.8,7.9c0,4.3,3.5,7.8,7.8,7.8c4.3,0,7.8-3.5,7.8-7.8
		C177.5,438.4,174,434.9,169.6,434.9z M169.6,451.9c-5,0-9.1-4.1-9.1-9.1c0-5,4.1-9.1,9.1-9.1c5,0,9.1,4.1,9.1,9.1
		C178.7,447.8,174.6,451.9,169.6,451.9z M169.6,328.7c-6.7,0-12.1,5.4-12.1,12.1v101.6c0,6.7,5.4,12.1,12.1,12.1
		c6.7,0,12.1-5.4,12.1-12.1V340.8C181.8,334.1,176.3,328.7,169.6,328.7z M169.6,455.8c-7.4,0-13.4-6-13.4-13.4V340.8
		c0-7.4,6-13.4,13.4-13.4c7.4,0,13.4,6,13.4,13.4v101.6C183,449.8,177,455.8,169.6,455.8z"/>
	<path class="st12" d="M240.3,378.2V405h13.4c3.6,0,6.9-1.4,9.5-3.9c2.3-2.3,3.6-5.3,3.9-8.5v-2c-0.2-3.2-1.6-6.2-3.9-8.5
		c-2.5-2.5-5.9-3.9-9.5-3.9H240.3z"/>
	<ellipse class="st13" cx="169.7" cy="391.7" rx="8.5" ry="8.6"/>
	<ellipse class="st14" cx="169.7" cy="391.7" rx="8.5" ry="8.6"/>
	<ellipse class="st13" cx="254.2" cy="391.7" rx="8.5" ry="8.6"/>
	<ellipse class="st14" cx="254.2" cy="391.7" rx="8.5" ry="8.6"/>
	<path class="st0" d="M164.1,386.1c-1.5,1.5-2.3,3.5-2.3,5.5c0,4.3,3.5,7.8,7.9,7.8c2.1,0,4.1-0.8,5.5-2.3c1.5-1.5,2.3-3.5,2.3-5.5
		c0-4.3-3.5-7.8-7.8-7.8C167.6,383.8,165.6,384.6,164.1,386.1 M176.1,398c-1.7,1.7-4,2.7-6.4,2.7c-5,0-9.1-4.1-9.1-9.1
		c0-2.4,0.9-4.7,2.7-6.4c1.7-1.7,4-2.7,6.4-2.7c5,0,9.1,4.1,9.1,9.1C178.8,394,177.8,396.3,176.1,398z M248.5,386.1
		c-1.5,1.5-2.3,3.5-2.3,5.5c0,4.3,3.5,7.8,7.8,7.8c2.1,0,4.1-0.8,5.5-2.3c1.5-1.5,2.3-3.5,2.3-5.5c0-4.3-3.5-7.8-7.8-7.8
		C252,383.8,250,384.6,248.5,386.1z M260.5,398.1c-1.7,1.7-4,2.7-6.4,2.7c-5,0-9.1-4.1-9.1-9.1c0-2.4,0.9-4.7,2.7-6.4
		c1.7-1.7,4-2.7,6.4-2.7c5,0,9.1,4.1,9.1,9.1C263.2,394,262.2,396.3,260.5,398.1z M161,383c-2.3,2.3-3.6,5.3-3.6,8.6
		c0,3.2,1.3,6.3,3.6,8.6c2.3,2.3,5.3,3.6,8.6,3.6l84.1,0c3.2,0,6.3-1.3,8.6-3.6c2.3-2.3,3.6-5.3,3.6-8.6c0-3.2-1.3-6.3-3.6-8.6
		c-2.3-2.3-5.3-3.6-8.6-3.6l-84.1,0C166.4,379.5,163.3,380.7,161,383z M263.2,401.1c-2.5,2.5-5.9,3.9-9.5,3.9l-84.1,0
		c-3.6,0-6.9-1.4-9.5-3.9c-2.5-2.5-3.9-5.9-3.9-9.5c0-3.6,1.4-6.9,3.9-9.5c2.5-2.5,5.9-3.9,9.5-3.9h84.1c3.6,0,6.9,1.4,9.5,3.9
		c2.5,2.5,3.9,5.9,3.9,9.5C267.1,395.2,265.7,398.5,263.2,401.1z"/>
	<path class="st0" d="M253.7,333.3c-4.3,0-7.8,3.5-7.8,7.8c0,4.3,3.5,7.8,7.8,7.8c4.3,0,7.8-3.5,7.8-7.8
		C261.5,336.9,258,333.3,253.7,333.3 M253.7,350.3c-5,0-9.1-4.1-9.1-9.1c0-5,4.1-9.1,9.1-9.1c5,0,9.1,4.1,9.1,9.1
		C262.8,346.2,258.7,350.3,253.7,350.3z M253.7,435.2c-4.3,0-7.8,3.5-7.8,7.8c0,4.3,3.5,7.9,7.8,7.9c4.3,0,7.8-3.5,7.8-7.9
		C261.5,438.7,258,435.2,253.7,435.2z M253.7,452.2c-5,0-9.1-4.1-9.1-9.1c0-5,4.1-9.1,9.1-9.1c5,0,9.1,4.1,9.1,9.1
		C262.8,448.1,258.7,452.2,253.7,452.2z M253.7,329c-6.7,0-12.1,5.4-12.1,12.1v101.6c0,6.7,5.4,12.1,12.1,12.1
		c6.7,0,12.1-5.4,12.1-12.1V341.1C265.8,334.4,260.4,329,253.7,329z M253.7,456.1c-7.4,0-13.4-6-13.4-13.4V341.1
		c0-7.4,6-13.4,13.4-13.4c7.4,0,13.4,6,13.4,13.4v101.6C267.1,450.1,261.1,456.1,253.7,456.1z"/>
	<path class="st15" d="M493.9,521.1c0.8,0,1.6,0.3,2.2,0.9c0.6,0.6,0.9,1.3,0.9,2.1c0,0.8-0.3,1.6-0.9,2.2c-0.6,0.6-1.3,0.9-2.2,0.9
		H486v33.2c0,0.8-0.3,1.5-0.9,2.1c-0.6,0.6-1.3,0.9-2.1,0.9c-0.8,0-1.5-0.3-2.1-0.9c-0.6-0.6-0.9-1.3-0.9-2.1v-33.2h-7.9
		c-0.8,0-1.5-0.3-2.1-0.9c-0.6-0.6-0.9-1.3-0.9-2.2c0-0.8,0.3-1.5,0.9-2.1c0.6-0.6,1.3-0.9,2.1-0.9H493.9z M446.8,557.2h7.5
		c0,0,0.3,0,0.6-0.1c0.4,0,0.9-0.1,1.4-0.3c0.6-0.1,1.2-0.3,1.9-0.6c0.7-0.3,1.4-0.6,2.1-1.1c1.8-1.2,3.3-2.9,4.2-5.1
		c1-2.2,1.5-4.9,1.5-7.9c0-3.2-0.5-5.9-1.5-8.1c-1-2.2-2.5-3.9-4.4-5.1c-0.7-0.4-1.4-0.7-2-1c-0.7-0.2-1.3-0.4-1.9-0.5
		c-0.6-0.1-1-0.2-1.4-0.2c-0.4,0-0.5-0.1-0.5-0.1h-7.5V557.2z M443.7,563.2c-0.8,0-1.5-0.3-2.1-0.9c-0.6-0.6-0.9-1.3-0.9-2.1V524
		c0-0.8,0.3-1.5,0.9-2.1c0.6-0.6,1.3-0.9,2.1-0.9h10.5c0,0,0.5,0,1.4,0.1c0.9,0.1,2,0.3,3.3,0.7c1.3,0.4,2.7,1,4.3,1.8
		c1.5,0.8,2.9,2,4.2,3.6c1.3,1.6,2.4,3.6,3.2,6c0.9,2.4,1.3,5.4,1.3,8.9c0,3.5-0.4,6.5-1.3,8.9c-0.9,2.4-1.9,4.4-3.2,6
		c-1.3,1.6-2.7,2.8-4.2,3.6c-1.5,0.8-2.9,1.5-4.3,1.8c-1.3,0.4-2.4,0.6-3.3,0.7c-0.9,0.1-1.4,0.1-1.4,0.1H443.7z M428.5,548.2
		l-6.3-16.1l-6.4,16.1H428.5z M439.4,559.1c0.1,0.3,0.2,0.7,0.2,1.1c0,0.8-0.3,1.4-0.8,2c-0.5,0.6-1.2,0.9-2.2,0.9
		c-0.6,0-1.1-0.2-1.6-0.6c-0.5-0.4-0.9-0.8-1.2-1.3l-2.8-7.1h-17.6l-2.9,7.1c-0.2,0.5-0.6,0.9-1.1,1.3c-0.5,0.4-1.1,0.6-1.6,0.6
		c-0.9,0-1.6-0.3-2.1-0.9c-0.5-0.6-0.8-1.3-0.8-2c0-0.4,0.1-0.8,0.2-1.1c2.3-5.8,4.7-11.8,7.2-18.1c2.5-6.2,4.9-12.2,7.3-18.1
		c0.3-0.5,0.7-1,1.2-1.4c0.5-0.4,1.1-0.6,1.7-0.6c0.6,0,1.1,0.2,1.6,0.6c0.5,0.4,0.9,0.8,1.2,1.4L439.4,559.1z M408.3,521.1
		c0.8,0,1.6,0.3,2.2,0.9c0.6,0.6,0.9,1.3,0.9,2.1c0,0.8-0.3,1.6-0.9,2.2c-0.6,0.6-1.3,0.9-2.2,0.9h-7.8v33.2c0,0.8-0.3,1.5-0.9,2.1
		c-0.6,0.6-1.3,0.9-2.1,0.9c-0.8,0-1.5-0.3-2.1-0.9c-0.6-0.6-0.9-1.3-0.9-2.1v-33.2h-7.9c-0.8,0-1.5-0.3-2.1-0.9
		c-0.6-0.6-0.9-1.3-0.9-2.2c0-0.8,0.3-1.5,0.9-2.1c0.6-0.6,1.3-0.9,2.1-0.9H408.3z M372.7,537.4c0.3,0.1,0.8,0.3,1.5,0.5
		c0.7,0.3,1.5,0.6,2.4,1.1c0.9,0.5,1.8,1,2.8,1.7c1,0.6,1.9,1.4,2.7,2.2c0.8,0.8,1.5,1.8,2.1,2.9c0.6,1.1,0.9,2.3,1,3.6v0.7
		c0,1.7-0.3,3.3-1,4.9c-0.7,1.6-1.6,3-2.7,4.1c-1.3,1.3-2.8,2.3-4.5,3c-1.7,0.7-3.6,1.1-5.6,1.1h-0.5c-2.5-0.1-4.8-0.8-6.8-2.1
		c-2-1.3-3.6-3.1-4.6-5.4c-0.2-0.3-0.2-0.7-0.2-1.3c0-0.6,0.1-1.1,0.4-1.6c0.3-0.5,0.7-0.9,1.3-1.1c0.4-0.2,0.8-0.3,1.3-0.3
		c0.6,0,1.1,0.2,1.6,0.5c0.5,0.3,0.9,0.7,1.1,1.3c0.6,1.2,1.4,2.2,2.5,2.9c1.1,0.7,2.3,1.1,3.7,1.1h0.3c2.4,0,4.3-0.7,5.7-2.2
		c1.4-1.4,2.1-3,2.1-4.9v-0.2c-0.1-0.8-0.4-1.6-1.1-2.3c-0.6-0.7-1.4-1.4-2.3-2c-0.9-0.6-1.8-1.1-2.7-1.5c-0.9-0.4-1.7-0.7-2.3-0.9
		c0,0-0.1,0-0.2-0.1c-0.1,0-0.2-0.1-0.2-0.1c-6-2.2-9-5.9-9-11.3v-0.5c0.1-1.5,0.4-2.9,1.1-4.2c0.6-1.3,1.6-2.4,2.9-3.3
		c1-0.8,2.3-1.5,3.7-2c1.4-0.5,2.9-0.7,4.4-0.7h0.6c1.2,0,2.4,0.3,3.6,0.8c1.2,0.5,2.4,1.1,3.4,1.8c0.3,0.3,0.6,0.7,0.8,1.1
		c0.2,0.4,0.4,0.8,0.4,1.2c0,0.8-0.2,1.4-0.7,1.8c-0.6,0.8-1.4,1.2-2.4,1.2c-0.3,0-0.6-0.1-0.9-0.2c-0.3-0.1-0.6-0.3-0.9-0.5
		c-0.5-0.4-1.1-0.7-1.7-0.9c-0.7-0.2-1.3-0.4-1.9-0.4h-0.4c-1.7,0-3.1,0.4-4.2,1.2c-1.1,0.8-1.7,1.9-1.8,3.2v0.2
		c0,0.9,0.1,1.6,0.4,2.2c0.3,0.6,0.7,1.1,1.1,1.5c0.5,0.4,1,0.8,1.7,1.1C371.3,536.8,371.9,537.1,372.7,537.4L372.7,537.4z
		 M355,563.2c-0.8,0-1.5-0.3-2.1-0.9c-0.6-0.6-0.9-1.3-0.9-2.1v-27.2l-10.9,14.5c-0.6,0.8-1.4,1.2-2.4,1.2c-1,0-1.8-0.4-2.4-1.2
		l-10.8-14.5v27.2c0,0.8-0.3,1.5-0.9,2.1c-0.6,0.6-1.3,0.9-2.1,0.9s-1.5-0.3-2.1-0.9c-0.6-0.6-0.9-1.3-0.9-2.1V524
		c0-0.8,0.3-1.5,0.9-2.1c0.6-0.6,1.3-0.9,2.2-0.9c1,0,1.7,0.4,2.3,1.2l13.8,18.5l13.9-18.5c0.6-0.8,1.3-1.2,2.3-1.2
		c0.9,0,1.6,0.3,2.2,0.9c0.6,0.6,0.8,1.3,0.8,2.1v36.2c0,0.8-0.3,1.5-0.9,2.1C356.5,562.9,355.8,563.2,355,563.2z M297.3,542.7h6.9
		c3.2,0,5.4-1.2,6.8-3.6c0.2-0.5,0.4-1,0.6-1.5c0.1-0.5,0.3-1,0.3-1.4c0.1-0.4,0.1-0.7,0.2-1c0-0.3,0-0.4,0-0.5
		c0-3.3-1.3-5.6-3.8-6.9c-0.5-0.2-1-0.4-1.5-0.5c-0.5-0.1-0.9-0.2-1.3-0.3c-0.4-0.1-0.9-0.1-1.3-0.1h-6.9V542.7z M317.7,558.6
		L317.7,558.6c0.3,0.6,0.4,1.1,0.4,1.6c0,0.4-0.1,0.9-0.4,1.4c-0.3,0.5-0.6,0.9-1.1,1.2c-0.4,0.3-0.9,0.4-1.5,0.4
		c-1.1,0-2-0.5-2.6-1.4l-8.2-13.1h-7v11.5c0,0.8-0.3,1.5-0.9,2.1c-0.6,0.6-1.3,0.9-2.1,0.9c-0.8,0-1.5-0.3-2.1-0.9
		c-0.6-0.6-0.9-1.3-0.9-2.1V524c0-0.8,0.3-1.5,0.9-2.1c0.6-0.6,1.3-0.9,2.1-0.9h9.9c0.1,0,0.3,0,0.8,0.1c0.4,0,0.9,0.1,1.6,0.2
		c0.6,0.1,1.3,0.3,2.1,0.5c0.8,0.2,1.6,0.5,2.4,0.9c2.2,1.2,3.9,2.8,5.2,4.9c1.3,2.1,1.9,4.5,1.9,7.3c0,0.1,0,0.3,0,0.8
		c0,0.4-0.1,0.9-0.2,1.6c-0.1,0.6-0.3,1.3-0.5,2.1c-0.2,0.8-0.5,1.6-0.9,2.4v-0.1c-0.6,1.2-1.4,2.3-2.3,3.3c-1,1-2.1,1.8-3.4,2.5
		L317.7,558.6z M279,548.2l-6.3-16.1l-6.4,16.1H279z M289.9,559.1c0.1,0.3,0.2,0.7,0.2,1.1c0,0.8-0.3,1.4-0.8,2
		c-0.5,0.6-1.2,0.9-2.2,0.9c-0.6,0-1.1-0.2-1.6-0.6c-0.5-0.4-0.9-0.8-1.2-1.3l-2.8-7.1h-17.6l-2.9,7.1c-0.2,0.5-0.6,0.9-1.1,1.3
		c-0.5,0.4-1.1,0.6-1.6,0.6c-0.9,0-1.6-0.3-2.1-0.9c-0.5-0.6-0.8-1.3-0.8-2c0-0.4,0.1-0.8,0.2-1.1c2.3-5.8,4.7-11.8,7.2-18.1
		c2.5-6.2,4.9-12.2,7.3-18.1c0.3-0.5,0.7-1,1.2-1.4c0.5-0.4,1.1-0.6,1.7-0.6c0.6,0,1.1,0.2,1.6,0.6c0.5,0.4,0.9,0.8,1.2,1.4
		L289.9,559.1z M232.4,557.2h7.5c0,0,0.3,0,0.6-0.1c0.4,0,0.9-0.1,1.4-0.3c0.6-0.1,1.2-0.3,1.9-0.6c0.7-0.3,1.4-0.6,2.1-1.1
		c1.8-1.2,3.3-2.9,4.2-5.1c1-2.2,1.5-4.9,1.5-7.9c0-3.2-0.5-5.9-1.5-8.1c-1-2.2-2.5-3.9-4.4-5.1c-0.7-0.4-1.4-0.7-2-1
		c-0.7-0.2-1.3-0.4-1.9-0.5c-0.6-0.1-1-0.2-1.4-0.2c-0.4,0-0.5-0.1-0.5-0.1h-7.5V557.2z M229.3,563.2c-0.8,0-1.5-0.3-2.1-0.9
		c-0.6-0.6-0.9-1.3-0.9-2.1V524c0-0.8,0.3-1.5,0.9-2.1c0.6-0.6,1.3-0.9,2.1-0.9h10.5c0,0,0.5,0,1.4,0.1c0.9,0.1,2,0.3,3.3,0.7
		c1.3,0.4,2.7,1,4.3,1.8c1.5,0.8,2.9,2,4.2,3.6c1.3,1.6,2.4,3.6,3.2,6c0.9,2.4,1.3,5.4,1.3,8.9c0,3.5-0.4,6.5-1.3,8.9
		c-0.9,2.4-1.9,4.4-3.2,6c-1.3,1.6-2.7,2.8-4.2,3.6c-1.5,0.8-2.9,1.5-4.3,1.8c-1.3,0.4-2.4,0.6-3.3,0.7c-0.9,0.1-1.4,0.1-1.4,0.1
		H229.3z"/>
	<path class="st1" d="M126.8,521.1c0.8,0,1.6,0.3,2.1,0.9c0.6,0.6,0.9,1.3,0.9,2.1v36.2c0,0.8-0.3,1.5-0.9,2.1
		c-0.6,0.6-1.3,0.9-2.1,0.9c-0.8,0-1.5-0.3-2.1-0.9c-0.6-0.6-0.9-1.3-0.9-2.1v-15.2h-17.4v15.2c0,0.8-0.3,1.5-0.9,2.1
		c-0.6,0.6-1.3,0.9-2.1,0.9s-1.5-0.3-2.1-0.9c-0.6-0.6-0.9-1.3-0.9-2.1v-36.2c0-0.8,0.3-1.5,0.9-2.1c0.6-0.6,1.3-0.9,2.1-0.9
		s1.5,0.3,2.1,0.9c0.6,0.6,0.9,1.3,0.9,2.1v15.2h17.4v-15.2c0-0.8,0.3-1.5,0.9-2.1C125.3,521.4,126,521.1,126.8,521.1"/>
	<path class="st1" d="M155,548.2l-6.3-16.1l-6.4,16.1H155z M165.9,559.1c0.1,0.3,0.2,0.7,0.2,1.1c0,0.8-0.3,1.4-0.8,2
		c-0.5,0.6-1.2,0.9-2.2,0.9c-0.6,0-1.1-0.2-1.6-0.6c-0.5-0.4-0.9-0.8-1.2-1.3l-2.8-7.1h-17.6l-2.9,7.1c-0.2,0.5-0.6,0.9-1.1,1.3
		c-0.5,0.4-1.1,0.6-1.6,0.6c-0.9,0-1.6-0.3-2.1-0.9c-0.5-0.6-0.8-1.3-0.8-2c0-0.4,0.1-0.8,0.2-1.1c2.3-5.8,4.7-11.8,7.2-18
		c2.5-6.2,4.9-12.2,7.2-18c0.3-0.5,0.7-1,1.2-1.4c0.5-0.4,1.1-0.6,1.7-0.6c0.6,0,1.1,0.2,1.6,0.6c0.5,0.4,0.9,0.8,1.2,1.4
		L165.9,559.1z"/>
	<path class="st1" d="M191.3,555.4c0.5-0.2,1-0.4,1.4-0.4c0.5,0,1,0.1,1.5,0.4c0.5,0.3,0.9,0.7,1.1,1.2c0.4,0.7,0.5,1.4,0.2,2.2
		c-0.3,0.8-0.7,1.4-1.4,1.8c-1.5,0.8-3.2,1.4-4.9,1.8c-1.7,0.5-3.5,0.7-5.1,0.7c-2.9,0-5.6-0.6-8.2-1.7c-2.6-1.1-4.8-2.6-6.7-4.5
		c-1.9-1.9-3.4-4.1-4.5-6.7c-1.1-2.6-1.7-5.3-1.7-8.2s0.6-5.6,1.7-8.1c1.1-2.5,2.6-4.8,4.5-6.7c1.9-1.9,4.1-3.4,6.7-4.5
		c2.6-1.1,5.3-1.7,8.2-1.7c1.7,0,3.4,0.2,5.1,0.7c1.7,0.5,3.4,1.1,4.9,1.8c0.7,0.4,1.2,1.1,1.4,1.8c0.3,0.8,0.2,1.5-0.2,2.2
		c-0.3,0.6-0.7,1-1.1,1.2c-0.5,0.3-1,0.4-1.5,0.4c-0.2,0-0.4,0-0.7-0.1c-0.3-0.1-0.5-0.2-0.7-0.2c-1-0.6-2.2-1-3.4-1.3
		c-1.2-0.3-2.5-0.5-3.7-0.5c-2,0-4,0.4-5.8,1.2c-1.8,0.8-3.4,1.9-4.8,3.2c-1.4,1.4-2.4,3-3.2,4.8c-0.8,1.8-1.2,3.8-1.2,5.9
		c0,2.1,0.4,4,1.2,5.9c0.8,1.8,1.9,3.4,3.2,4.8c1.4,1.4,3,2.4,4.8,3.2s3.8,1.2,5.8,1.2c1.3,0,2.5-0.1,3.8-0.4
		C189.1,556.5,190.2,556,191.3,555.4"/>
	<path class="st1" d="M224,558.2c0.2,0.3,0.4,0.6,0.5,1c0.2,0.4,0.2,0.7,0.2,1.1c0,0.8-0.3,1.5-0.9,2.1c-0.6,0.6-1.3,0.9-2.1,0.9
		c-0.4,0-0.7-0.1-1.1-0.3c-0.4-0.2-0.8-0.4-1.1-0.7l-16.4-18v16.1c0,0.8-0.3,1.5-0.9,2.1c-0.6,0.6-1.3,0.9-2.1,0.9
		c-0.8,0-1.5-0.3-2.1-0.9c-0.6-0.6-0.9-1.3-0.9-2.1v-36.2c0-0.8,0.3-1.5,0.9-2.1c0.6-0.6,1.3-0.9,2.1-0.9c0.8,0,1.6,0.3,2.1,0.9
		c0.6,0.6,0.9,1.3,0.9,2.1v16.1l16.4-18c0.3-0.3,0.7-0.5,1.1-0.7c0.4-0.2,0.8-0.3,1.1-0.3c0.8,0,1.6,0.3,2.1,0.9
		c0.6,0.6,0.9,1.3,0.9,2.1c0,0.8-0.3,1.4-0.8,2l-14.7,16.1L224,558.2z"/>
</g>
</svg>
